<svg xmlns="http://www.w3.org/2000/svg" viewBox="0 0 64 64" role="img" aria-label="St Barnabas">
  <rect width="64" height="64" fill="#F6F2EA"/>
  <g transform="translate(17.54,7.00) scale(0.04822)" fill="#6A1B2D" fill-rule="evenodd">
    <path d="M212.25 1036.28L215 1035.87L214.98 897.18C214.96 808.47 214.59 756.94 213.95 754.17C212.52 747.96 204.87 735.38 198.76 729.19C188.79 719.08 181.55 714.4 166.26 708.17C145.25 699.62 132.39 687.15 116.86 660.25C114.11 655.49 111.24 650.11 110.48 648.3C108.36 643.21 106.44 644.19 102.69 652.25C96.96 664.59 83.99 682.86 74.9 691.41C67.91 697.99 64.86 700 54.1 705.13C47.17 708.43 39.25 712.23 36.5 713.58C24.85 719.28 6.72 738.38 2.95 748.93C2.25 750.89 1.38 759.48 1.03 768C0.67 776.52 0.29 607.21 0.19 391.75L0 0L297.75 0.01L595.5 0.02L586 3.35C580.77 5.18 574.15 7.88 571.28 9.34C568.41 10.8 565.63 12 565.1 12C564.57 12 562.53 13.01 560.56 14.25C514.55 43.17 494.76 65.8 489.49 95.55C482.66 134.11 490.89 158.82 517.48 179.63C537.33 195.16 562.1 221.96 573.73 240.5C576.83 245.45 582.48 255.79 586.28 263.48C596.23 283.6 598.22 285.91 599.27 278.5C599.51 276.85 599.69 322.98 599.68 381C599.67 439.02 599.4 483.84 599.08 480.58C598.76 477.32 598.01 474.49 597.41 474.3C596.81 474.1 592.23 480.59 587.23 488.72C582.23 496.85 577.32 504.41 576.32 505.52C575.32 506.63 571.35 511.1 567.5 515.45C559.93 524 550.01 531.16 540.38 535.02C517.82 544.05 501.8 557.31 493.89 573.5L489.5 582.5L489.24 808.94C489.03 990.05 489.23 1035.53 490.24 1036.17C490.93 1036.61 438.4 1036.87 373.5 1036.74L255.5 1036.51L355.77 1036.25L456.04 1035.99L455.77 809.75L455.5 583.5L452.66 577.05C448.79 568.25 445.49 563.73 436.86 555.39C428.81 547.62 420.24 541.7 413.7 539.4C411.39 538.58 404.79 535.57 399.04 532.71C381.19 523.82 365.29 505.71 353.8 481.18C350.28 473.66 348.59 471.01 347.82 471.78C347.22 472.38 345.03 476.69 342.95 481.37C337.21 494.25 327.88 507.27 314.67 520.83C307.65 528.03 300.01 532.66 287.98 537.01C268.71 543.96 253.85 556.94 245.61 574L241.5 582.5L241 807.5C240.72 931.25 240.66 1033.26 240.85 1034.19C241.05 1035.13 242.17 1036.08 243.35 1036.31C244.53 1036.54 237.4 1036.72 227.5 1036.71C217.6 1036.71 210.74 1036.51 212.25 1036.28ZM0.48 902.5C0.48 837.05 0.6 810.42 0.75 843.33C0.9 876.23 0.9 929.78 0.75 962.33C0.6 994.87 0.48 967.95 0.48 902.5ZM599.49 777C599.49 644.17 599.61 589.84 599.75 656.25C599.89 722.66 599.89 831.34 599.75 897.75C599.61 964.16 599.49 909.83 599.49 777ZM11.28 702.48C22.74 691.83 33.89 684.56 54 674.63C79.35 662.1 83.1 657.7 86.54 636.39C88.35 625.26 88.72 399.02 86.94 394.35L85.87 391.52L83.88 394.01C78.1 401.25 60.82 440.22 50.84 468.5C34.99 513.44 32.63 520.7 25.52 546.5C12.11 595.12 10.09 605.25 2.98 660C1.35 672.52 0.58 710 1.95 710C2.63 710 6.83 706.62 11.28 702.48ZM214.47 706.04C215.49 704.4 215.07 610.45 214 601.04C211.45 578.48 202.57 564.91 181.5 551.41C170.82 544.56 142.45 524.01 134.36 517.28C118.08 503.7 115.96 502.34 114.39 504.49C112.67 506.83 112.67 508.64 114.48 539.2C117.54 590.92 123.24 624.57 132.07 643C135.5 650.16 137.59 652.91 145.38 660.5C155.31 670.17 175.93 685.13 198 698.67C211.58 706.99 213.39 707.8 214.47 706.04ZM468 537.31C468 536.93 466.44 532.1 464.54 526.56C453.01 493.01 445.59 459.44 442.49 426.78C439.06 390.63 434.73 375.31 420.04 347.33C407.24 322.97 393.57 306.52 376.59 295.06C360.67 284.32 321.54 269.54 310.78 270.21L306.01 270.5L315.88 285.04C336.66 315.64 348.05 339.09 352.43 360.31C354.75 371.54 356.98 389.57 356.99 397.12C357.01 411.83 364.35 445.39 370.42 458.54C379.27 477.7 390.39 488.46 416.2 502.89C435.49 513.66 449.29 523.17 460.5 533.4C465.05 537.56 468 539.1 468 537.31ZM210.8 528.8C212.69 526.91 212.53 213 210.64 213C208.05 213 179.96 246.44 164.03 268.5C158.86 275.65 152.1 284.88 148.99 289C131.51 312.22 120.48 334.6 113.04 361.95C109.7 374.23 108.71 388.77 109.94 407.48C112.1 440.37 117.91 456.46 135.62 478.56C145.18 490.48 163.54 506.57 173.5 511.73C175.15 512.59 179.2 515.12 182.5 517.35C188.17 521.2 206.28 529.98 208.55 530C209.13 530 210.14 529.46 210.8 528.8ZM256.43 522.05C272.64 514.12 302.92 486.86 313.43 470.74C327.23 449.56 331 436.45 331 409.58C331 388.69 329.84 382.54 321.71 360.5C315.93 344.8 310.65 334.48 301.11 320.19C296.81 313.76 287.31 299.27 280 288C257.24 252.92 254.34 248.63 250.21 244C248 241.53 245.92 239.77 245.57 240.11C244.77 240.9 244.83 518.88 245.64 522.93C246.41 526.82 246.72 526.8 256.43 522.05ZM545.01 495.9C550.6 494.7 561.91 487.68 568.5 481.31C580.04 470.16 585.44 461.44 590.92 445.07C593.85 436.34 594.04 434.83 594.06 421.13C594.08 397.69 591.21 387.78 579.13 369.5C563.99 346.59 528.9 320.65 497.36 309.05C493.04 307.46 487.86 305.46 485.85 304.61C479.52 301.92 453.03 294.96 445.11 293.91C440.92 293.35 433.53 293.03 428.68 293.2L419.87 293.5L423.79 299C428.52 305.64 440.21 326.92 442.99 333.96C444.09 336.76 446.1 341.24 447.46 343.93C456.89 362.53 461.58 381.36 463.04 406.5C464.86 437.63 468.05 452.75 475.54 465.73C479.59 472.74 494.64 487.19 501.27 490.43C513.12 496.23 532.31 498.63 545.01 495.9ZM598.22 343.45C600.31 341.36 583.86 303.15 571.97 282.5C553.16 249.84 538.91 230.74 517.07 208.97C498.77 190.72 489.3 183.35 474.41 175.8C436.07 156.33 390.94 141.31 354.52 135.88C334.14 132.84 304.62 133.51 295 137.23C287.26 140.22 278.59 145.17 274.66 148.84C265.39 157.5 262.18 178.49 266.07 205C269.43 227.86 293.47 250.84 319 255.6C323.12 256.37 340.68 258.12 358 259.51C375.32 260.89 394.45 262.7 400.5 263.54C406.55 264.38 418.02 265.94 426 267.01C471.3 273.1 494.51 281.17 537.93 305.95C555.15 315.78 567.13 323.37 583.5 334.82C596.79 344.12 597.27 344.4 598.22 343.45ZM599.33 249.5C599.33 245.65 599.51 244.2 599.73 246.27C599.95 248.35 599.94 251.5 599.72 253.27C599.5 255.05 599.32 253.35 599.33 249.5ZM599.48 132C599.48 90.47 599.6 73.49 599.75 94.25C599.9 115.01 599.9 148.99 599.75 169.75C599.6 190.51 599.48 173.53 599.48 132ZM471.91 129.47C469.07 104.56 470.46 91.58 477.95 73.01C487.52 49.27 501.2 27.82 515.9 13.54C518.7 10.81 521 8.23 521 7.81C521 5.71 499.4 12.6 472.51 23.28C460.19 28.16 408.94 53.95 395.5 62.01C377.07 73.08 343.48 95.63 338.81 100.06C336.39 102.37 335.03 104.38 335.57 104.85C336.08 105.31 343.93 106.43 353 107.35C374.53 109.53 395.13 114.85 422 125.18C433.3 129.53 463.29 143.34 468.97 146.82C470.89 147.99 472.79 148.61 473.2 148.2C473.61 147.79 473.03 139.36 471.91 129.47ZM599.35 47.5C599.35 42.55 599.52 40.4 599.73 42.72C599.94 45.04 599.94 49.09 599.74 51.72C599.53 54.35 599.36 52.45 599.35 47.5Z"/>
  </g>
</svg>
